{
    "asset" : {
        "generator" : "Khronos glTF Blender I/O v3.3.32",
        "version" : "2.0"
    },
    "extensionsUsed" : [
        "KHR_materials_specular",
        "KHR_materials_ior"
    ],
    "scene" : 0,
    "scenes" : [
        {
            "name" : "Scene",
            "nodes" : [
                6
            ]
        }
    ],
    "nodes" : [
        {
            "mesh" : 0,
            "name" : "barba",
            "scale" : [
                0.6672686338424683,
                0.667268693447113,
                0.6672686338424683
            ],
            "translation" : [
                0,
                2.434837369946763e-06,
                37.32555389404297
            ]
        },
        {
            "mesh" : 1,
            "name" : "base",
            "scale" : [
                0.7612654566764832,
                0.7612654566764832,
                0.7612654566764832
            ],
            "translation" : [
                0,
                -11.730371475219727,
                7.749629497528076
            ]
        },
        {
            "mesh" : 2,
            "name" : "cara",
            "scale" : [
                0.6672686338424683,
                0.667268693447113,
                0.6672686338424683
            ],
            "translation" : [
                0,
                2.434837369946763e-06,
                37.32555389404297
            ]
        },
        {
            "mesh" : 3,
            "name" : "cuerpo",
            "scale" : [
                0.6672686338424683,
                0.667268693447113,
                0.6672686338424683
            ],
            "translation" : [
                0,
                2.434837369946763e-06,
                37.32555389404297
            ]
        },
        {
            "mesh" : 4,
            "name" : "pelo",
            "scale" : [
                0.6672686338424683,
                0.667268693447113,
                0.6672686338424683
            ],
            "translation" : [
                0,
                2.434837369946763e-06,
                37.32555389404297
            ]
        },
        {
            "mesh" : 5,
            "name" : "zapas",
            "scale" : [
                0.6672686338424683,
                0.667268693447113,
                0.6672686338424683
            ],
            "translation" : [
                0,
                2.434837369946763e-06,
                37.32555389404297
            ]
        },
        {
            "children" : [
                0,
                1,
                2,
                3,
                4,
                5
            ],
            "name" : "polySurface2_9",
            "rotation" : [
                0.7071068286895752,
                0,
                0,
                0.7071067094802856
            ],
            "scale" : [
                0.2412928342819214,
                0.27180010080337524,
                0.2412928342819214
            ],
            "translation" : [
                4.743190765380859,
                81.31291961669922,
                9.867941856384277
            ]
        }
    ],
    "materials" : [
        {
            "doubleSided" : true,
            "extensions" : {
                "KHR_materials_specular" : {
                    "specularColorFactor" : [
                        2.371357614441398,
                        2.371357614441398,
                        2.371357614441398
                    ]
                },
                "KHR_materials_ior" : {
                    "ior" : 1.4500000476837158
                }
            },
            "name" : "Extract2",
            "pbrMetallicRoughness" : {
                "baseColorFactor" : [
                    0.5,
                    0.5,
                    0.5,
                    1
                ],
                "roughnessFactor" : 0.858578622341156
            }
        },
        {
            "doubleSided" : true,
            "extensions" : {
                "KHR_materials_specular" : {
                    "specularColorFactor" : [
                        2.371357614441398,
                        2.371357614441398,
                        2.371357614441398
                    ]
                },
                "KHR_materials_ior" : {
                    "ior" : 1.4500000476837158
                }
            },
            "name" : "PM3D_Cylinder3D1_2",
            "pbrMetallicRoughness" : {
                "baseColorFactor" : [
                    0.5,
                    0.5,
                    0.5,
                    1
                ],
                "roughnessFactor" : 0.858578622341156
            }
        },
        {
            "doubleSided" : true,
            "extensions" : {
                "KHR_materials_specular" : {
                    "specularColorFactor" : [
                        2.371357614441398,
                        2.371357614441398,
                        2.371357614441398
                    ]
                },
                "KHR_materials_ior" : {
                    "ior" : 1.4500000476837158
                }
            },
            "name" : "polySurface8",
            "pbrMetallicRoughness" : {
                "baseColorFactor" : [
                    0.5,
                    0.5,
                    0.5,
                    1
                ],
                "roughnessFactor" : 0.858578622341156
            }
        },
        {
            "doubleSided" : true,
            "extensions" : {
                "KHR_materials_specular" : {
                    "specularColorFactor" : [
                        2.371357614441398,
                        2.371357614441398,
                        2.371357614441398
                    ]
                },
                "KHR_materials_ior" : {
                    "ior" : 1.4500000476837158
                }
            },
            "name" : "polySurface2_7",
            "pbrMetallicRoughness" : {
                "baseColorFactor" : [
                    0.5,
                    0.5,
                    0.5,
                    1
                ],
                "roughnessFactor" : 0.858578622341156
            }
        },
        {
            "doubleSided" : true,
            "extensions" : {
                "KHR_materials_specular" : {
                    "specularColorFactor" : [
                        2.371357614441398,
                        2.371357614441398,
                        2.371357614441398
                    ]
                },
                "KHR_materials_ior" : {
                    "ior" : 1.4500000476837158
                }
            },
            "name" : "Extract5",
            "pbrMetallicRoughness" : {
                "baseColorFactor" : [
                    0.5,
                    0.5,
                    0.5,
                    1
                ],
                "roughnessFactor" : 0.858578622341156
            }
        },
        {
            "doubleSided" : true,
            "extensions" : {
                "KHR_materials_specular" : {
                    "specularColorFactor" : [
                        2.371357614441398,
                        2.371357614441398,
                        2.371357614441398
                    ]
                },
                "KHR_materials_ior" : {
                    "ior" : 1.4500000476837158
                }
            },
            "name" : "UMesh_Merged_UMesh_Merged_jordan_3_penholder4",
            "pbrMetallicRoughness" : {
                "baseColorFactor" : [
                    0.5,
                    0.5,
                    0.5,
                    1
                ],
                "roughnessFactor" : 0.858578622341156
            }
        }
    ],
    "meshes" : [
        {
            "name" : "Mesh.003",
            "primitives" : [
                {
                    "attributes" : {
                        "POSITION" : 0,
                        "NORMAL" : 1
                    },
                    "indices" : 2,
                    "material" : 0
                }
            ]
        },
        {
            "name" : "Mesh.001",
            "primitives" : [
                {
                    "attributes" : {
                        "POSITION" : 3,
                        "NORMAL" : 4
                    },
                    "indices" : 5,
                    "material" : 1
                }
            ]
        },
        {
            "name" : "Mesh.005",
            "primitives" : [
                {
                    "attributes" : {
                        "POSITION" : 6,
                        "NORMAL" : 7,
                        "COLOR_0" : 8
                    },
                    "indices" : 9,
                    "material" : 2
                }
            ]
        },
        {
            "name" : "Mesh",
            "primitives" : [
                {
                    "attributes" : {
                        "POSITION" : 10,
                        "NORMAL" : 11
                    },
                    "indices" : 12,
                    "material" : 3
                }
            ]
        },
        {
            "name" : "Mesh.002",
            "primitives" : [
                {
                    "attributes" : {
                        "POSITION" : 13,
                        "NORMAL" : 14
                    },
                    "indices" : 15,
                    "material" : 4
                }
            ]
        },
        {
            "name" : "Mesh.004",
            "primitives" : [
                {
                    "attributes" : {
                        "POSITION" : 16,
                        "NORMAL" : 17
                    },
                    "indices" : 18,
                    "material" : 5
                }
            ]
        }
    ],
    "accessors" : [
        {
            "bufferView" : 0,
            "componentType" : 5126,
            "count" : 19520,
            "max" : [
                144.7170867919922,
                136.325439453125,
                15.66455078125
            ],
            "min" : [
                -144.71754455566406,
                30.644775390625,
                -77.55517578125
            ],
            "type" : "VEC3"
        },
        {
            "bufferView" : 1,
            "componentType" : 5126,
            "count" : 19520,
            "type" : "VEC3"
        },
        {
            "bufferView" : 2,
            "componentType" : 5123,
            "count" : 31356,
            "type" : "SCALAR"
        },
        {
            "bufferView" : 3,
            "componentType" : 5126,
            "count" : 846,
            "max" : [
                161.33895874023438,
                188.7801513671875,
                324.439697265625
            ],
            "min" : [
                -161.33941650390625,
                -151.60772705078125,
                279.1904602050781
            ],
            "type" : "VEC3"
        },
        {
            "bufferView" : 4,
            "componentType" : 5126,
            "count" : 846,
            "type" : "VEC3"
        },
        {
            "bufferView" : 5,
            "componentType" : 5123,
            "count" : 2016,
            "type" : "SCALAR"
        },
        {
            "bufferView" : 6,
            "componentType" : 5126,
            "count" : 37180,
            "max" : [
                186.58584594726562,
                140.8869171142578,
                51.34564971923828
            ],
            "min" : [
                -186.58584594726562,
                -167.9580535888672,
                -280.35986328125
            ],
            "type" : "VEC3"
        },
        {
            "bufferView" : 7,
            "componentType" : 5126,
            "count" : 37180,
            "type" : "VEC3"
        },
        {
            "bufferView" : 8,
            "componentType" : 5123,
            "count" : 37180,
            "normalized" : true,
            "type" : "VEC4"
        },
        {
            "bufferView" : 9,
            "componentType" : 5123,
            "count" : 62520,
            "type" : "SCALAR"
        },
        {
            "bufferView" : 10,
            "componentType" : 5126,
            "count" : 12972,
            "max" : [
                119.6488265991211,
                54.72706985473633,
                288.0145568847656
            ],
            "min" : [
                -119.6492919921875,
                -39.21913146972656,
                2.04998779296875
            ],
            "type" : "VEC3"
        },
        {
            "bufferView" : 11,
            "componentType" : 5126,
            "count" : 12972,
            "type" : "VEC3"
        },
        {
            "bufferView" : 12,
            "componentType" : 5123,
            "count" : 19800,
            "type" : "SCALAR"
        },
        {
            "bufferView" : 13,
            "componentType" : 5126,
            "count" : 8886,
            "max" : [
                162.92857360839844,
                136.60684204101562,
                -15.595548629760742
            ],
            "min" : [
                -163.09661865234375,
                -178.08059692382812,
                -303.107666015625
            ],
            "type" : "VEC3"
        },
        {
            "bufferView" : 14,
            "componentType" : 5126,
            "count" : 8886,
            "type" : "VEC3"
        },
        {
            "bufferView" : 15,
            "componentType" : 5123,
            "count" : 13524,
            "type" : "SCALAR"
        },
        {
            "bufferView" : 16,
            "componentType" : 5126,
            "count" : 6626,
            "max" : [
                98.20572662353516,
                61.48046875,
                278.2353515625
            ],
            "min" : [
                -98.1781005859375,
                -40.079833984375,
                227.94287109375
            ],
            "type" : "VEC3"
        },
        {
            "bufferView" : 17,
            "componentType" : 5126,
            "count" : 6626,
            "type" : "VEC3"
        },
        {
            "bufferView" : 18,
            "componentType" : 5123,
            "count" : 12090,
            "type" : "SCALAR"
        }
    ],
    "bufferViews" : [
        {
            "buffer" : 0,
            "byteLength" : 234240,
            "byteOffset" : 0,
            "target" : 34962
        },
        {
            "buffer" : 0,
            "byteLength" : 234240,
            "byteOffset" : 234240,
            "target" : 34962
        },
        {
            "buffer" : 0,
            "byteLength" : 62712,
            "byteOffset" : 468480,
            "target" : 34963
        },
        {
            "buffer" : 0,
            "byteLength" : 10152,
            "byteOffset" : 531192,
            "target" : 34962
        },
        {
            "buffer" : 0,
            "byteLength" : 10152,
            "byteOffset" : 541344,
            "target" : 34962
        },
        {
            "buffer" : 0,
            "byteLength" : 4032,
            "byteOffset" : 551496,
            "target" : 34963
        },
        {
            "buffer" : 0,
            "byteLength" : 446160,
            "byteOffset" : 555528,
            "target" : 34962
        },
        {
            "buffer" : 0,
            "byteLength" : 446160,
            "byteOffset" : 1001688,
            "target" : 34962
        },
        {
            "buffer" : 0,
            "byteLength" : 297440,
            "byteOffset" : 1447848,
            "target" : 34962
        },
        {
            "buffer" : 0,
            "byteLength" : 125040,
            "byteOffset" : 1745288,
            "target" : 34963
        },
        {
            "buffer" : 0,
            "byteLength" : 155664,
            "byteOffset" : 1870328,
            "target" : 34962
        },
        {
            "buffer" : 0,
            "byteLength" : 155664,
            "byteOffset" : 2025992,
            "target" : 34962
        },
        {
            "buffer" : 0,
            "byteLength" : 39600,
            "byteOffset" : 2181656,
            "target" : 34963
        },
        {
            "buffer" : 0,
            "byteLength" : 106632,
            "byteOffset" : 2221256,
            "target" : 34962
        },
        {
            "buffer" : 0,
            "byteLength" : 106632,
            "byteOffset" : 2327888,
            "target" : 34962
        },
        {
            "buffer" : 0,
            "byteLength" : 27048,
            "byteOffset" : 2434520,
            "target" : 34963
        },
        {
            "buffer" : 0,
            "byteLength" : 79512,
            "byteOffset" : 2461568,
            "target" : 34962
        },
        {
            "buffer" : 0,
            "byteLength" : 79512,
            "byteOffset" : 2541080,
            "target" : 34962
        },
        {
            "buffer" : 0,
            "byteLength" : 24180,
            "byteOffset" : 2620592,
            "target" : 34963
        }
    ],
    "buffers" : [
        {
            "byteLength" : 2644772,
            "uri" : "data:application/octet-stream;base64,"
        }
    ]
}
