{
    "asset" : {
        "generator" : "Khronos glTF Blender I/O v3.3.32",
        "version" : "2.0"
    },
    "scene" : 0,
    "scenes" : [
        {
            "name" : "Scene",
            "nodes" : [
                0
            ]
        }
    ],
    "nodes" : [
        {
            "mesh" : 0,
            "name" : "cara.001",
            "rotation" : [
                0.7071068286895752,
                0,
                0,
                0.7071067094802856
            ],
            "scale" : [
                0.009999999776482582,
                0.009999999776482582,
                0.009999999776482582
            ]
        }
    ],
    "meshes" : [
        {
            "name" : "Mesh.001",
            "primitives" : [
                {
                    "attributes" : {
                        "POSITION" : 0,
                        "NORMAL" : 1,
                        "TEXCOORD_0" : 2,
                        "COLOR_0" : 3
                    },
                    "indices" : 4
                }
            ]
        }
    ],
    "accessors" : [
        {
            "bufferView" : 0,
            "componentType" : 5126,
            "count" : 37208,
            "max" : [
                186.58584594726562,
                140.8869171142578,
                51.34564971923828
            ],
            "min" : [
                -186.58584594726562,
                -167.9580535888672,
                -280.35986328125
            ],
            "type" : "VEC3"
        },
        {
            "bufferView" : 1,
            "componentType" : 5126,
            "count" : 37208,
            "type" : "VEC3"
        },
        {
            "bufferView" : 2,
            "componentType" : 5126,
            "count" : 37208,
            "type" : "VEC2"
        },
        {
            "bufferView" : 3,
            "componentType" : 5123,
            "count" : 37208,
            "normalized" : true,
            "type" : "VEC4"
        },
        {
            "bufferView" : 4,
            "componentType" : 5123,
            "count" : 62520,
            "type" : "SCALAR"
        }
    ],
    "bufferViews" : [
        {
            "buffer" : 0,
            "byteLength" : 446496,
            "byteOffset" : 0,
            "target" : 34962
        },
        {
            "buffer" : 0,
            "byteLength" : 446496,
            "byteOffset" : 446496,
            "target" : 34962
        },
        {
            "buffer" : 0,
            "byteLength" : 297664,
            "byteOffset" : 892992,
            "target" : 34962
        },
        {
            "buffer" : 0,
            "byteLength" : 297664,
            "byteOffset" : 1190656,
            "target" : 34962
        },
        {
            "buffer" : 0,
            "byteLength" : 125040,
            "byteOffset" : 1488320,
            "target" : 34963
        }
    ],
    "buffers" : [
        {
            "byteLength" : 1613360,
            "uri" : "data:application/octet-stream;base64,"
        }
    ]
}
